<svg xmlns="http://www.w3.org/2000/svg" viewBox="0 0 64 64" aria-labelledby="title"
aria-describedby="desc" role="img" xmlns:xlink="http://www.w3.org/1999/xlink">
  <title>Shield</title>
  <desc>A color styled icon from Orion Icon Library.</desc>
  <path data-name="layer1"
  d="M56 12A33 33 0 0 1 32 2 33 33 0 0 1 8 12S5.9 48 32 62c26.1-14 24-50 24-50z"
  fill="#fc6"></path>
  <path data-name="opacity" d="M8 12S5.9 48 32 62V2A33 33 0 0 1 8 12z"
  fill="#000064" opacity=".1"></path>
  <path data-name="stroke" d="M56 12A33 33 0 0 1 32 2 33 33 0 0 1 8 12S5.9 48 32 62c26.1-14 24-50 24-50z"
  fill="none" stroke="#2e4369" stroke-linecap="round" stroke-linejoin="round"
  stroke-width="2"></path>
</svg>